<svg width="28" height="28" viewBox="0 0 28 28" fill="none" xmlns="http://www.w3.org/2000/svg">
<path fill-rule="evenodd" clip-rule="evenodd" d="M14 22C16.3186 22 18.4068 21.0136 19.868 19.4376C18.4644 18.5808 16.3855 18 13.9997 18C11.6141 18 9.53559 18.5809 8.13205 19.4376C9.59317 21.0136 11.6814 22 14 22ZM16.4241 16.182C18.1928 16.4532 19.7882 17.0175 21.0366 17.8092C21.6511 16.6766 22 15.3791 22 14C22 9.58172 18.4183 6 14 6C9.58172 6 6 9.58172 6 14C6 15.3791 6.34895 16.6766 6.96337 17.8092C8.21183 17.0175 9.80715 16.4531 11.5758 16.182C10.618 15.4512 10 14.2978 10 13C10 10.7909 11.7909 9 14 9C16.2091 9 18 10.7909 18 13C18 14.2978 17.3819 15.4512 16.4241 16.182ZM14 24C19.5228 24 24 19.5228 24 14C24 8.47715 19.5228 4 14 4C8.47715 4 4 8.47715 4 14C4 19.5228 8.47715 24 14 24ZM16 13C16 14.1046 15.1046 15 14 15C12.8954 15 12 14.1046 12 13C12 11.8954 12.8954 11 14 11C15.1046 11 16 11.8954 16 13Z" fill="#222222"/>
</svg>
