<svg width="28" height="28" viewBox="0 0 28 28" fill="none" xmlns="http://www.w3.org/2000/svg">
<path fill-rule="evenodd" clip-rule="evenodd" d="M16.0752 16.1521C14.0547 18.187 10.7788 18.187 8.75826 16.1521C6.73774 14.1171 6.73774 10.8178 8.75826 8.78284C10.7788 6.74788 14.0547 6.74788 16.0752 8.78284C18.0957 10.8178 18.0957 14.1171 16.0752 16.1521ZM17.2474 17.7995C14.435 20.3879 10.0702 20.3119 7.34909 17.5713C4.5503 14.7525 4.5503 10.1824 7.34909 7.3636C10.1479 4.54482 14.6856 4.54482 17.4844 7.3636C19.9726 9.86958 20.2487 13.7598 18.3127 16.573C18.5353 16.5943 18.7521 16.6908 18.9226 16.8624L22.5811 20.547C22.9702 20.9389 22.9702 21.5744 22.5811 21.9663C22.1919 22.3582 21.561 22.3582 21.1719 21.9663L17.5134 18.2817C17.3767 18.144 17.288 17.9762 17.2474 17.7995Z" fill="#222222"/>
</svg>
